<?xml version="1.0"?>
<svg width="34" height="34" xmlns="http://www.w3.org/2000/svg" xmlns:svg="http://www.w3.org/2000/svg">
 <g class="layer">
  <title>Layer 2</title>
  <circle cx="16.92" cy="16.92" fill="#ffffff" id="svg_6" r="16.92" stroke="#1a4875"/>
 </g>
 <g class="layer">
  <title>Layer 1</title>
  <path d="m23.09,13.91l-2.83,-2.83l4.29,-4.29a1.98,1.98 0 0 1 2.81,-0.01l0.01,0a2.01,2.01 0 0 1 0,2.84l-4.28,4.29z" fill="#03bcd5" id="svg_1"/>
  <path d="m11.09,20.25l2.83,2.83l-3.54,3.53l-2.83,-2.83l3.54,-3.53z" fill="#f2696a" id="svg_2"/>
  <path d="m20.28,11.06l2.83,2.83l-9.19,9.19l-2.83,-2.83l9.19,-9.19zm-12.02,16.26l-1.41,-1.41l0.7,-2.13l2.83,2.83l-2.12,0.71z" fill="#03bcd5" id="svg_3"/>
  <path d="m29.12,10.7l-1.09,-1.09a2.47,2.47 0 0 0 0.42,-1.41a2.5,2.5 0 0 0 -0.74,-1.78c-0.96,-0.96 -2.54,-0.96 -3.52,0.02l-4.29,4.29l0,0l-9.17,9.17l-3.53,3.53a0.49,0.49 0 0 0 -0.11,0.18c-0.01,0.01 -0.01,0.01 -0.01,0.02l-0.71,2.12a0.5,0.5 0 0 0 0.12,0.51l0.36,0.35l-0.71,0.71a0.5,0.5 0 0 0 0.71,0.71l0.7,-0.71l0.36,0.35a0.5,0.5 0 0 0 0.51,0.12l2.12,-0.7c0.01,-0.01 0.01,-0.01 0.01,-0.01a0.5,0.5 0 0 0 0.19,-0.11l3.53,-3.54l9.17,-9.17l0,0l3.91,-3.91l0.71,0.71l-4.6,4.59a0.5,0.5 0 0 0 0.71,0.71l4.95,-4.95a0.5,0.5 0 0 0 0,-0.71zm-4.22,-3.55c0.28,-0.29 0.66,-0.45 1.06,-0.45l0.01,0c0.39,0 0.76,0.15 1.04,0.44c0.29,0.28 0.44,0.66 0.45,1.06c0,0.41 -0.16,0.78 -0.44,1.07l-3.91,3.91l-2.12,-2.12l3.91,-3.91zm-4.64,4.64l2.12,2.12l-8.46,8.46l-1.07,-1.06l-1.06,-1.06l8.47,-8.46zm-11.87,14.96l-0.97,-0.98l0.35,-1.06l0.84,0.84l0.85,0.84l-1.07,0.36zm1.99,-0.84l-1.06,-1.06l-1.06,-1.06l2.83,-2.83l1.06,1.06l1.06,1.06l-2.83,2.83z" fill="#1a4875" id="svg_4"/>
 </g>
</svg>