<svg xmlns="http://www.w3.org/2000/svg" viewBox="0 0 32 32" id="pen"><path fill="#03bcd5" d="m21.447 11.967-2.828-2.828 4.287-4.287a1.983 1.983 0 0 1 2.814-.015l.007.007a2.01 2.01 0 0 1 .007 2.836l-4.287 4.287z"></path><path fill="#f2696a" d="m9.449 18.309 2.828 2.829-3.536 3.535-2.828-2.829z"></path><path fill="#03bcd5" d="m18.641 9.117 2.828 2.828-9.192 9.192-2.828-2.828zM6.62 25.38l-1.414-1.414.707-2.121 2.828 2.828z"></path><path fill="#1a4875" d="M27.479 8.763 26.386 7.67a2.47 2.47 0 0 0 .429-1.409 2.5 2.5 0 0 0-.743-1.777c-.966-.966-2.545-.961-3.521.015l-4.287 4.287-.001.001-9.169 9.169-3.534 3.535a.49.49 0 0 0-.113.183c-.002.005-.006.007-.008.012l-.707 2.121a.5.5 0 0 0 .121.512l.353.354-.708.707a.5.5 0 0 0 .708.707l.708-.707.354.354a.5.5 0 0 0 .512.12l2.121-.707c.005-.002.008-.006.012-.008a.497.497 0 0 0 .183-.113l3.535-3.536 9.169-9.169.001-.001 3.911-3.911.707.707-4.597 4.596a.5.5 0 0 0 .708.707l4.95-4.95a.5.5 0 0 0-.001-.706zm-4.22-3.557c.285-.285.66-.444 1.057-.447h.011c.392 0 .76.153 1.047.439.284.284.441.663.442 1.066.002.403-.153.78-.436 1.063l-3.911 3.911-2.122-2.122 3.912-3.91zm-4.641 4.64 2.121 2.121-8.464 8.464-1.061-1.061-1.061-1.061 8.465-8.463zM6.755 24.808l-.977-.977.354-1.06.842.842.842.842-1.061.353zm1.986-.842L7.68 22.905l-1.06-1.06 2.828-2.829 1.061 1.061 1.061 1.061-2.829 2.828z"></path></svg>